<?xml version="1.0" encoding="utf-8"?>
<!-- Generator: Adobe Illustrator 21.1.0, SVG Export Plug-In . SVG Version: 6.00 Build 0)  -->
<svg version="1.1" id="Layer_1" xmlns="http://www.w3.org/2000/svg" xmlns:xlink="http://www.w3.org/1999/xlink" x="0px" y="0px"
	 viewBox="0 0 501 104.1" style="enable-background:new 0 0 501 104.1;" xml:space="preserve">
<style type="text/css">
	.st0{fill:#FFFFFF;}
</style>
<title>Asset 1</title>
<g id="Layer_2">
	<g id="Layer_1-2">
		<path class="st0" d="M67,59.1c5.6-3.2,9.1-9.1,9.2-15.6c0-9.9-8.7-18.3-19-18.3H50v9.5h7.2c5,0,9.4,4.1,9.4,8.7s-4.4,8.7-9.5,8.7
			H50v9.5h7.2l10,15h11.5L67,59.1z"/>
		<path class="st0" d="M34.8,25.3V29c0,2.8-2.2,5.9-4.9,5.9h-3.1v7.9h8v34l0,0l0,0h9.6V25.3H34.8z"/>
		<path class="st0" d="M48.4,9.1V0C22.6,1.8,2.1,22.3,0.1,48.1h9.1C11.1,27.3,27.6,10.9,48.4,9.1z"/>
		<path class="st0" d="M95,48.1h9.1c-2-26-22.8-46.5-48.8-48.1v9.1C76.3,10.7,93,27.2,95,48.1z"/>
		<path class="st0" d="M55.3,95v9.1c26.4-1.6,47.3-22.7,48.9-49.1h-9.1C93.6,76.4,76.6,93.4,55.3,95z"/>
		<path class="st0" d="M9.1,55H0c1.5,26.2,22.2,47.2,48.4,49.1V95C27.3,93.2,10.6,76.2,9.1,55z"/>
		<path class="st0" d="M138.3,56.2h-6.1v14h-8.3v-39h18.3c8.1,0,13.1,5.3,13.1,12.6c0,6.9-4.3,10.6-8.5,11.6l8.8,14.9h-9.5
			L138.3,56.2z M140.9,38.3h-8.7V49h8.7c3.3,0,5.9-2.1,5.9-5.4S144.2,38.3,140.9,38.3L140.9,38.3z"/>
		<path class="st0" d="M190.6,53.8h-18.4v16.4h-8.3v-39h8.3v15.3h18.4V31.1h8.4v39h-8.4L190.6,53.8z"/>
		<path class="st0" d="M219.8,54.2l-15-23.1h9.5l9.7,15.7l9.6-15.7h9.5l-14.9,23.1v16h-8.3V54.2z"/>
		<path class="st0" d="M258,38.4h-11.4v-7.3h31.1v7.3h-11.3v31.7H258V38.4z"/>
		<path class="st0" d="M312.2,53.8h-18.4v16.4h-8.3v-39h8.3v15.3h18.4V31.1h8.4v39h-8.4L312.2,53.8z"/>
		<path class="st0" d="M364.5,42.1l-11,28.1h-3.6l-11-28.1v28.1h-8.3v-39h11.7l9.5,24.3l9.5-24.3h11.7v39h-8.4L364.5,42.1z"/>
		<path class="st0" d="M401.4,30.5c11.5,0,19.4,8.7,19.4,20.2s-7.8,20.2-19.4,20.2S382,62.2,382,50.7S389.8,30.5,401.4,30.5z
			 M401.4,34.8c-8.8,0-14.3,6.7-14.3,15.9s5.6,15.9,14.3,15.9s14.3-6.8,14.3-15.9S410.1,34.8,401.4,34.8z"/>
		<path class="st0" d="M434.8,38.7v31.5h-4.9v-39h5L457.4,62V31.1h4.9v39h-4.7L434.8,38.7z"/>
		<path class="st0" d="M475.4,31.1H501v4.3h-20.7V48h20.3v4.3h-20.3v13.5H501v4.3h-25.6V31.1z"/>
	</g>
</g>
</svg>
